<svg xmlns="http://www.w3.org/2000/svg" xmlns:xlink="http://www.w3.org/1999/xlink" xmlns:s="https://github.com/nturley/netlistsvg" width="524" height="892.5">
  <style>svg {
    stroke:#000;
    fill:none;
  }
  text {
    fill:#000;
    stroke:none;
    font-size:10px;
    font-weight: bold;
    font-family: "Courier New", monospace;
  }
  .nodelabel {
    text-anchor: middle;
  }
  .inputPortLabel {
    text-anchor: end;
  }
  .splitjoinBody {
    fill:#000;
  }</style>
  <g s:type="reduce_nor" transform="translate(264,513.5)" s:width="33" s:height="25" id="cell_$abc$200$auto$blifparse.cc:396:parse_blif$201">
    <s:alias val="$nor"/>
    <s:alias val="$reduce_nor"/>
    <s:alias val="$_NOR_"/>
    <s:alias val="$_ORNOT_"/>
    <path d="M0,25 L0,25 L15,25 A15 12.5 0 0 0 15,0 L0,0" class="cell_$abc$200$auto$blifparse.cc:396:parse_blif$201"/>
    <path d="M0,0 A30 25 0 0 1 0,25" class="cell_$abc$200$auto$blifparse.cc:396:parse_blif$201"/>
    <circle cx="34" cy="12.5" r="3" class="cell_$abc$200$auto$blifparse.cc:396:parse_blif$201"/>
    <g s:x="3" s:y="5" s:pid="A"/>
    <g s:x="3" s:y="20" s:pid="B"/>
    <g s:x="36" s:y="12.5" s:pid="Y"/>
  </g>
  <g s:type="nand" transform="translate(264,377.5)" s:width="30" s:height="25" id="cell_$abc$200$auto$blifparse.cc:396:parse_blif$202">
    <s:alias val="$nand"/>
    <s:alias val="$logic_nand"/>
    <s:alias val="$_NAND_"/>
    <s:alias val="$_ANDNOT_"/>
    <path d="M0,0 L0,25 L15,25 A15 12.5 0 0 0 15,0 Z" class="cell_$abc$200$auto$blifparse.cc:396:parse_blif$202"/>
    <circle cx="34" cy="12.5" r="3" class="cell_$abc$200$auto$blifparse.cc:396:parse_blif$202"/>
    <g s:x="0" s:y="5" s:pid="A"/>
    <g s:x="0" s:y="20" s:pid="B"/>
    <g s:x="36" s:y="12.5" s:pid="Y"/>
  </g>
  <g s:type="nand" transform="translate(340,370)" s:width="30" s:height="25" id="cell_$abc$200$auto$blifparse.cc:396:parse_blif$203">
    <s:alias val="$nand"/>
    <s:alias val="$logic_nand"/>
    <s:alias val="$_NAND_"/>
    <s:alias val="$_ANDNOT_"/>
    <path d="M0,0 L0,25 L15,25 A15 12.5 0 0 0 15,0 Z" class="cell_$abc$200$auto$blifparse.cc:396:parse_blif$203"/>
    <circle cx="34" cy="12.5" r="3" class="cell_$abc$200$auto$blifparse.cc:396:parse_blif$203"/>
    <g s:x="0" s:y="5" s:pid="A"/>
    <g s:x="0" s:y="20" s:pid="B"/>
    <g s:x="36" s:y="12.5" s:pid="Y"/>
  </g>
  <g s:type="not" transform="translate(267,573.5)" s:width="30" s:height="20" id="cell_$abc$200$auto$blifparse.cc:396:parse_blif$204">
    <s:alias val="$_NOT_"/>
    <s:alias val="$not"/>
    <s:alias val="$logic_not"/>
    <path d="M0,0 L0,20 L20,10 Z" class="cell_$abc$200$auto$blifparse.cc:396:parse_blif$204"/>
    <circle cx="23" cy="10" r="3" class="cell_$abc$200$auto$blifparse.cc:396:parse_blif$204"/>
    <g s:x="0" s:y="10" s:pid="A"/>
    <g s:x="25" s:y="10" s:pid="Y"/>
  </g>
  <g s:type="not" transform="translate(191,312.5)" s:width="30" s:height="20" id="cell_$abc$200$auto$blifparse.cc:396:parse_blif$205">
    <s:alias val="$_NOT_"/>
    <s:alias val="$not"/>
    <s:alias val="$logic_not"/>
    <path d="M0,0 L0,20 L20,10 Z" class="cell_$abc$200$auto$blifparse.cc:396:parse_blif$205"/>
    <circle cx="23" cy="10" r="3" class="cell_$abc$200$auto$blifparse.cc:396:parse_blif$205"/>
    <g s:x="0" s:y="10" s:pid="A"/>
    <g s:x="25" s:y="10" s:pid="Y"/>
  </g>
  <g s:type="and" transform="translate(190,266.5)" s:width="30" s:height="25" id="cell_$abc$200$auto$blifparse.cc:396:parse_blif$206">
    <s:alias val="$and"/>
    <s:alias val="$logic_and"/>
    <s:alias val="$_AND_"/>
    <path d="M0,0 L0,25 L15,25 A15 12.5 0 0 0 15,0 Z" class="cell_$abc$200$auto$blifparse.cc:396:parse_blif$206"/>
    <g s:x="0" s:y="5" s:pid="A"/>
    <g s:x="0" s:y="20" s:pid="B"/>
    <g s:x="30" s:y="12.5" s:pid="Y"/>
  </g>
  <g s:type="nand" transform="translate(264,317.5)" s:width="30" s:height="25" id="cell_$abc$200$auto$blifparse.cc:396:parse_blif$207">
    <s:alias val="$nand"/>
    <s:alias val="$logic_nand"/>
    <s:alias val="$_NAND_"/>
    <s:alias val="$_ANDNOT_"/>
    <path d="M0,0 L0,25 L15,25 A15 12.5 0 0 0 15,0 Z" class="cell_$abc$200$auto$blifparse.cc:396:parse_blif$207"/>
    <circle cx="34" cy="12.5" r="3" class="cell_$abc$200$auto$blifparse.cc:396:parse_blif$207"/>
    <g s:x="0" s:y="5" s:pid="A"/>
    <g s:x="0" s:y="20" s:pid="B"/>
    <g s:x="36" s:y="12.5" s:pid="Y"/>
  </g>
  <g s:type="nand" transform="translate(340,310)" s:width="30" s:height="25" id="cell_$abc$200$auto$blifparse.cc:396:parse_blif$208">
    <s:alias val="$nand"/>
    <s:alias val="$logic_nand"/>
    <s:alias val="$_NAND_"/>
    <s:alias val="$_ANDNOT_"/>
    <path d="M0,0 L0,25 L15,25 A15 12.5 0 0 0 15,0 Z" class="cell_$abc$200$auto$blifparse.cc:396:parse_blif$208"/>
    <circle cx="34" cy="12.5" r="3" class="cell_$abc$200$auto$blifparse.cc:396:parse_blif$208"/>
    <g s:x="0" s:y="5" s:pid="A"/>
    <g s:x="0" s:y="20" s:pid="B"/>
    <g s:x="36" s:y="12.5" s:pid="Y"/>
  </g>
  <g s:type="or" transform="translate(413,362.5)" s:width="30" s:height="25" id="cell_$abc$200$auto$blifparse.cc:396:parse_blif$209">
    <s:alias val="$or"/>
    <s:alias val="$logic_or"/>
    <s:alias val="$_OR_"/>
    <path d="M0,25 L0,25 L15,25 A15 12.5 0 0 0 15,0 L0,0" class="cell_$abc$200$auto$blifparse.cc:396:parse_blif$209"/>
    <path d="M0,0 A30 25 0 0 1 0,25" class="cell_$abc$200$auto$blifparse.cc:396:parse_blif$209"/>
    <g s:x="3" s:y="5" s:pid="A"/>
    <g s:x="3" s:y="20" s:pid="B"/>
    <g s:x="30" s:y="12.5" s:pid="Y"/>
  </g>
  <g s:type="reduce_xor" transform="translate(265,453.5)" s:width="33" s:height="25" id="cell_$abc$200$auto$blifparse.cc:396:parse_blif$210">
    <s:alias val="$xor"/>
    <s:alias val="$reduce_xor"/>
    <s:alias val="$_XOR_"/>
    <path d="M3,0 A30 25 0 0 1 3,25 A30 25 0 0 0 33,12.5 A30 25 0 0 0 3,0" class="cell_$abc$200$auto$blifparse.cc:396:parse_blif$210"/>
    <path d="M0,0 A30 25 0 0 1 0,25" class="cell_$abc$200$auto$blifparse.cc:396:parse_blif$210"/>
    <g s:x="3" s:y="5" s:pid="A"/>
    <g s:x="3" s:y="20" s:pid="B"/>
    <g s:x="33" s:y="12.5" s:pid="Y"/>
  </g>
  <g s:type="nand" transform="translate(340,446)" s:width="30" s:height="25" id="cell_$abc$200$auto$blifparse.cc:396:parse_blif$211">
    <s:alias val="$nand"/>
    <s:alias val="$logic_nand"/>
    <s:alias val="$_NAND_"/>
    <s:alias val="$_ANDNOT_"/>
    <path d="M0,0 L0,25 L15,25 A15 12.5 0 0 0 15,0 Z" class="cell_$abc$200$auto$blifparse.cc:396:parse_blif$211"/>
    <circle cx="34" cy="12.5" r="3" class="cell_$abc$200$auto$blifparse.cc:396:parse_blif$211"/>
    <g s:x="0" s:y="5" s:pid="A"/>
    <g s:x="0" s:y="20" s:pid="B"/>
    <g s:x="36" s:y="12.5" s:pid="Y"/>
  </g>
  <g s:type="or" transform="translate(413,506)" s:width="30" s:height="25" id="cell_$abc$200$auto$blifparse.cc:396:parse_blif$212">
    <s:alias val="$or"/>
    <s:alias val="$logic_or"/>
    <s:alias val="$_OR_"/>
    <path d="M0,25 L0,25 L15,25 A15 12.5 0 0 0 15,0 L0,0" class="cell_$abc$200$auto$blifparse.cc:396:parse_blif$212"/>
    <path d="M0,0 A30 25 0 0 1 0,25" class="cell_$abc$200$auto$blifparse.cc:396:parse_blif$212"/>
    <g s:x="3" s:y="5" s:pid="A"/>
    <g s:x="3" s:y="20" s:pid="B"/>
    <g s:x="30" s:y="12.5" s:pid="Y"/>
  </g>
  <g s:type="nand" transform="translate(92,719.5)" s:width="30" s:height="25" id="cell_$abc$200$auto$blifparse.cc:396:parse_blif$213">
    <s:alias val="$nand"/>
    <s:alias val="$logic_nand"/>
    <s:alias val="$_NAND_"/>
    <s:alias val="$_ANDNOT_"/>
    <path d="M0,0 L0,25 L15,25 A15 12.5 0 0 0 15,0 Z" class="cell_$abc$200$auto$blifparse.cc:396:parse_blif$213"/>
    <circle cx="34" cy="12.5" r="3" class="cell_$abc$200$auto$blifparse.cc:396:parse_blif$213"/>
    <g s:x="0" s:y="5" s:pid="A"/>
    <g s:x="0" s:y="20" s:pid="B"/>
    <g s:x="36" s:y="12.5" s:pid="Y"/>
  </g>
  <g s:type="nand" transform="translate(264,734.5)" s:width="30" s:height="25" id="cell_$abc$200$auto$blifparse.cc:396:parse_blif$214">
    <s:alias val="$nand"/>
    <s:alias val="$logic_nand"/>
    <s:alias val="$_NAND_"/>
    <s:alias val="$_ANDNOT_"/>
    <path d="M0,0 L0,25 L15,25 A15 12.5 0 0 0 15,0 Z" class="cell_$abc$200$auto$blifparse.cc:396:parse_blif$214"/>
    <circle cx="34" cy="12.5" r="3" class="cell_$abc$200$auto$blifparse.cc:396:parse_blif$214"/>
    <g s:x="0" s:y="5" s:pid="A"/>
    <g s:x="0" s:y="20" s:pid="B"/>
    <g s:x="36" s:y="12.5" s:pid="Y"/>
  </g>
  <g s:type="nand" transform="translate(340,727)" s:width="30" s:height="25" id="cell_$abc$200$auto$blifparse.cc:396:parse_blif$215">
    <s:alias val="$nand"/>
    <s:alias val="$logic_nand"/>
    <s:alias val="$_NAND_"/>
    <s:alias val="$_ANDNOT_"/>
    <path d="M0,0 L0,25 L15,25 A15 12.5 0 0 0 15,0 Z" class="cell_$abc$200$auto$blifparse.cc:396:parse_blif$215"/>
    <circle cx="34" cy="12.5" r="3" class="cell_$abc$200$auto$blifparse.cc:396:parse_blif$215"/>
    <g s:x="0" s:y="5" s:pid="A"/>
    <g s:x="0" s:y="20" s:pid="B"/>
    <g s:x="36" s:y="12.5" s:pid="Y"/>
  </g>
  <g s:type="or" transform="translate(413,742)" s:width="30" s:height="25" id="cell_$abc$200$auto$blifparse.cc:396:parse_blif$216">
    <s:alias val="$or"/>
    <s:alias val="$logic_or"/>
    <s:alias val="$_OR_"/>
    <path d="M0,25 L0,25 L15,25 A15 12.5 0 0 0 15,0 L0,0" class="cell_$abc$200$auto$blifparse.cc:396:parse_blif$216"/>
    <path d="M0,0 A30 25 0 0 1 0,25" class="cell_$abc$200$auto$blifparse.cc:396:parse_blif$216"/>
    <g s:x="3" s:y="5" s:pid="A"/>
    <g s:x="3" s:y="20" s:pid="B"/>
    <g s:x="30" s:y="12.5" s:pid="Y"/>
  </g>
  <g s:type="reduce_nor" transform="translate(92,614.5)" s:width="33" s:height="25" id="cell_$abc$200$auto$blifparse.cc:396:parse_blif$217">
    <s:alias val="$nor"/>
    <s:alias val="$reduce_nor"/>
    <s:alias val="$_NOR_"/>
    <s:alias val="$_ORNOT_"/>
    <path d="M0,25 L0,25 L15,25 A15 12.5 0 0 0 15,0 L0,0" class="cell_$abc$200$auto$blifparse.cc:396:parse_blif$217"/>
    <path d="M0,0 A30 25 0 0 1 0,25" class="cell_$abc$200$auto$blifparse.cc:396:parse_blif$217"/>
    <circle cx="34" cy="12.5" r="3" class="cell_$abc$200$auto$blifparse.cc:396:parse_blif$217"/>
    <g s:x="3" s:y="5" s:pid="A"/>
    <g s:x="3" s:y="20" s:pid="B"/>
    <g s:x="36" s:y="12.5" s:pid="Y"/>
  </g>
  <g s:type="nand" transform="translate(188,622)" s:width="30" s:height="25" id="cell_$abc$200$auto$blifparse.cc:396:parse_blif$218">
    <s:alias val="$nand"/>
    <s:alias val="$logic_nand"/>
    <s:alias val="$_NAND_"/>
    <s:alias val="$_ANDNOT_"/>
    <path d="M0,0 L0,25 L15,25 A15 12.5 0 0 0 15,0 Z" class="cell_$abc$200$auto$blifparse.cc:396:parse_blif$218"/>
    <circle cx="34" cy="12.5" r="3" class="cell_$abc$200$auto$blifparse.cc:396:parse_blif$218"/>
    <g s:x="0" s:y="5" s:pid="A"/>
    <g s:x="0" s:y="20" s:pid="B"/>
    <g s:x="36" s:y="12.5" s:pid="Y"/>
  </g>
  <g s:type="reduce_nor" transform="translate(92,855.5)" s:width="33" s:height="25" id="cell_$abc$200$auto$blifparse.cc:396:parse_blif$219">
    <s:alias val="$nor"/>
    <s:alias val="$reduce_nor"/>
    <s:alias val="$_NOR_"/>
    <s:alias val="$_ORNOT_"/>
    <path d="M0,25 L0,25 L15,25 A15 12.5 0 0 0 15,0 L0,0" class="cell_$abc$200$auto$blifparse.cc:396:parse_blif$219"/>
    <path d="M0,0 A30 25 0 0 1 0,25" class="cell_$abc$200$auto$blifparse.cc:396:parse_blif$219"/>
    <circle cx="34" cy="12.5" r="3" class="cell_$abc$200$auto$blifparse.cc:396:parse_blif$219"/>
    <g s:x="3" s:y="5" s:pid="A"/>
    <g s:x="3" s:y="20" s:pid="B"/>
    <g s:x="36" s:y="12.5" s:pid="Y"/>
  </g>
  <g s:type="nand" transform="translate(188,682)" s:width="30" s:height="25" id="cell_$abc$200$auto$blifparse.cc:396:parse_blif$220">
    <s:alias val="$nand"/>
    <s:alias val="$logic_nand"/>
    <s:alias val="$_NAND_"/>
    <s:alias val="$_ANDNOT_"/>
    <path d="M0,0 L0,25 L15,25 A15 12.5 0 0 0 15,0 Z" class="cell_$abc$200$auto$blifparse.cc:396:parse_blif$220"/>
    <circle cx="34" cy="12.5" r="3" class="cell_$abc$200$auto$blifparse.cc:396:parse_blif$220"/>
    <g s:x="0" s:y="5" s:pid="A"/>
    <g s:x="0" s:y="20" s:pid="B"/>
    <g s:x="36" s:y="12.5" s:pid="Y"/>
  </g>
  <g s:type="nand" transform="translate(264,674.5)" s:width="30" s:height="25" id="cell_$abc$200$auto$blifparse.cc:396:parse_blif$221">
    <s:alias val="$nand"/>
    <s:alias val="$logic_nand"/>
    <s:alias val="$_NAND_"/>
    <s:alias val="$_ANDNOT_"/>
    <path d="M0,0 L0,25 L15,25 A15 12.5 0 0 0 15,0 Z" class="cell_$abc$200$auto$blifparse.cc:396:parse_blif$221"/>
    <circle cx="34" cy="12.5" r="3" class="cell_$abc$200$auto$blifparse.cc:396:parse_blif$221"/>
    <g s:x="0" s:y="5" s:pid="A"/>
    <g s:x="0" s:y="20" s:pid="B"/>
    <g s:x="36" s:y="12.5" s:pid="Y"/>
  </g>
  <g s:type="nand" transform="translate(340,667)" s:width="30" s:height="25" id="cell_$abc$200$auto$blifparse.cc:396:parse_blif$222">
    <s:alias val="$nand"/>
    <s:alias val="$logic_nand"/>
    <s:alias val="$_NAND_"/>
    <s:alias val="$_ANDNOT_"/>
    <path d="M0,0 L0,25 L15,25 A15 12.5 0 0 0 15,0 Z" class="cell_$abc$200$auto$blifparse.cc:396:parse_blif$222"/>
    <circle cx="34" cy="12.5" r="3" class="cell_$abc$200$auto$blifparse.cc:396:parse_blif$222"/>
    <g s:x="0" s:y="5" s:pid="A"/>
    <g s:x="0" s:y="20" s:pid="B"/>
    <g s:x="36" s:y="12.5" s:pid="Y"/>
  </g>
  <g s:type="nand" transform="translate(340,583.5)" s:width="30" s:height="25" id="cell_$abc$200$auto$blifparse.cc:396:parse_blif$223">
    <s:alias val="$nand"/>
    <s:alias val="$logic_nand"/>
    <s:alias val="$_NAND_"/>
    <s:alias val="$_ANDNOT_"/>
    <path d="M0,0 L0,25 L15,25 A15 12.5 0 0 0 15,0 Z" class="cell_$abc$200$auto$blifparse.cc:396:parse_blif$223"/>
    <circle cx="34" cy="12.5" r="3" class="cell_$abc$200$auto$blifparse.cc:396:parse_blif$223"/>
    <g s:x="0" s:y="5" s:pid="A"/>
    <g s:x="0" s:y="20" s:pid="B"/>
    <g s:x="36" s:y="12.5" s:pid="Y"/>
  </g>
  <g s:type="or" transform="translate(413,659.5)" s:width="30" s:height="25" id="cell_$abc$200$auto$blifparse.cc:396:parse_blif$224">
    <s:alias val="$or"/>
    <s:alias val="$logic_or"/>
    <s:alias val="$_OR_"/>
    <path d="M0,25 L0,25 L15,25 A15 12.5 0 0 0 15,0 L0,0" class="cell_$abc$200$auto$blifparse.cc:396:parse_blif$224"/>
    <path d="M0,0 A30 25 0 0 1 0,25" class="cell_$abc$200$auto$blifparse.cc:396:parse_blif$224"/>
    <g s:x="3" s:y="5" s:pid="A"/>
    <g s:x="3" s:y="20" s:pid="B"/>
    <g s:x="30" s:y="12.5" s:pid="Y"/>
  </g>
  <g s:type="not" transform="translate(267,140.5)" s:width="30" s:height="20" id="cell_$abc$200$auto$blifparse.cc:396:parse_blif$225">
    <s:alias val="$_NOT_"/>
    <s:alias val="$not"/>
    <s:alias val="$logic_not"/>
    <path d="M0,0 L0,20 L20,10 Z" class="cell_$abc$200$auto$blifparse.cc:396:parse_blif$225"/>
    <circle cx="23" cy="10" r="3" class="cell_$abc$200$auto$blifparse.cc:396:parse_blif$225"/>
    <g s:x="0" s:y="10" s:pid="A"/>
    <g s:x="25" s:y="10" s:pid="Y"/>
  </g>
  <g s:type="mux" transform="translate(345.3333333333333,205.5)" s:width="20" s:height="40" id="cell_$abc$200$auto$blifparse.cc:396:parse_blif$226">
    <s:alias val="$pmux"/>
    <s:alias val="$mux"/>
    <s:alias val="$_MUX_"/>
    <path d="M0,0 L20,10 L20,30 L0,40 Z" class="cell_$abc$200$auto$blifparse.cc:396:parse_blif$226"/>
    <g s:x="0" s:y="10" s:pid="A"/>
    <g s:x="0" s:y="30" s:pid="B"/>
    <g s:x="10" s:y="35" s:pid="S"/>
    <g s:x="20" s:y="20" s:pid="Y"/>
  </g>
  <g s:type="nand" transform="translate(411,294)" s:width="30" s:height="25" id="cell_$abc$200$auto$blifparse.cc:396:parse_blif$227">
    <s:alias val="$nand"/>
    <s:alias val="$logic_nand"/>
    <s:alias val="$_NAND_"/>
    <s:alias val="$_ANDNOT_"/>
    <path d="M0,0 L0,25 L15,25 A15 12.5 0 0 0 15,0 Z" class="cell_$abc$200$auto$blifparse.cc:396:parse_blif$227"/>
    <circle cx="34" cy="12.5" r="3" class="cell_$abc$200$auto$blifparse.cc:396:parse_blif$227"/>
    <g s:x="0" s:y="5" s:pid="A"/>
    <g s:x="0" s:y="20" s:pid="B"/>
    <g s:x="36" s:y="12.5" s:pid="Y"/>
  </g>
  <g s:type="reduce_nor" transform="translate(92,94.5)" s:width="33" s:height="25" id="cell_$abc$200$auto$blifparse.cc:396:parse_blif$228">
    <s:alias val="$nor"/>
    <s:alias val="$reduce_nor"/>
    <s:alias val="$_NOR_"/>
    <s:alias val="$_ORNOT_"/>
    <path d="M0,25 L0,25 L15,25 A15 12.5 0 0 0 15,0 L0,0" class="cell_$abc$200$auto$blifparse.cc:396:parse_blif$228"/>
    <path d="M0,0 A30 25 0 0 1 0,25" class="cell_$abc$200$auto$blifparse.cc:396:parse_blif$228"/>
    <circle cx="34" cy="12.5" r="3" class="cell_$abc$200$auto$blifparse.cc:396:parse_blif$228"/>
    <g s:x="3" s:y="5" s:pid="A"/>
    <g s:x="3" s:y="20" s:pid="B"/>
    <g s:x="36" s:y="12.5" s:pid="Y"/>
  </g>
  <g s:type="nand" transform="translate(340,145.5)" s:width="30" s:height="25" id="cell_$abc$200$auto$blifparse.cc:396:parse_blif$229">
    <s:alias val="$nand"/>
    <s:alias val="$logic_nand"/>
    <s:alias val="$_NAND_"/>
    <s:alias val="$_ANDNOT_"/>
    <path d="M0,0 L0,25 L15,25 A15 12.5 0 0 0 15,0 Z" class="cell_$abc$200$auto$blifparse.cc:396:parse_blif$229"/>
    <circle cx="34" cy="12.5" r="3" class="cell_$abc$200$auto$blifparse.cc:396:parse_blif$229"/>
    <g s:x="0" s:y="5" s:pid="A"/>
    <g s:x="0" s:y="20" s:pid="B"/>
    <g s:x="36" s:y="12.5" s:pid="Y"/>
  </g>
  <g s:type="reduce_nor" transform="translate(92,338.5)" s:width="33" s:height="25" id="cell_$abc$200$auto$blifparse.cc:396:parse_blif$230">
    <s:alias val="$nor"/>
    <s:alias val="$reduce_nor"/>
    <s:alias val="$_NOR_"/>
    <s:alias val="$_ORNOT_"/>
    <path d="M0,25 L0,25 L15,25 A15 12.5 0 0 0 15,0 L0,0" class="cell_$abc$200$auto$blifparse.cc:396:parse_blif$230"/>
    <path d="M0,0 A30 25 0 0 1 0,25" class="cell_$abc$200$auto$blifparse.cc:396:parse_blif$230"/>
    <circle cx="34" cy="12.5" r="3" class="cell_$abc$200$auto$blifparse.cc:396:parse_blif$230"/>
    <g s:x="3" s:y="5" s:pid="A"/>
    <g s:x="3" s:y="20" s:pid="B"/>
    <g s:x="36" s:y="12.5" s:pid="Y"/>
  </g>
  <g s:type="and" transform="translate(190,12)" s:width="30" s:height="25" id="cell_$abc$200$auto$blifparse.cc:396:parse_blif$231">
    <s:alias val="$and"/>
    <s:alias val="$logic_and"/>
    <s:alias val="$_AND_"/>
    <path d="M0,0 L0,25 L15,25 A15 12.5 0 0 0 15,0 Z" class="cell_$abc$200$auto$blifparse.cc:396:parse_blif$231"/>
    <g s:x="0" s:y="5" s:pid="A"/>
    <g s:x="0" s:y="20" s:pid="B"/>
    <g s:x="30" s:y="12.5" s:pid="Y"/>
  </g>
  <g s:type="reduce_nor" transform="translate(188,72)" s:width="33" s:height="25" id="cell_$abc$200$auto$blifparse.cc:396:parse_blif$232">
    <s:alias val="$nor"/>
    <s:alias val="$reduce_nor"/>
    <s:alias val="$_NOR_"/>
    <s:alias val="$_ORNOT_"/>
    <path d="M0,25 L0,25 L15,25 A15 12.5 0 0 0 15,0 L0,0" class="cell_$abc$200$auto$blifparse.cc:396:parse_blif$232"/>
    <path d="M0,0 A30 25 0 0 1 0,25" class="cell_$abc$200$auto$blifparse.cc:396:parse_blif$232"/>
    <circle cx="34" cy="12.5" r="3" class="cell_$abc$200$auto$blifparse.cc:396:parse_blif$232"/>
    <g s:x="3" s:y="5" s:pid="A"/>
    <g s:x="3" s:y="20" s:pid="B"/>
    <g s:x="36" s:y="12.5" s:pid="Y"/>
  </g>
  <g s:type="nand" transform="translate(264,64.5)" s:width="30" s:height="25" id="cell_$abc$200$auto$blifparse.cc:396:parse_blif$233">
    <s:alias val="$nand"/>
    <s:alias val="$logic_nand"/>
    <s:alias val="$_NAND_"/>
    <s:alias val="$_ANDNOT_"/>
    <path d="M0,0 L0,25 L15,25 A15 12.5 0 0 0 15,0 Z" class="cell_$abc$200$auto$blifparse.cc:396:parse_blif$233"/>
    <circle cx="34" cy="12.5" r="3" class="cell_$abc$200$auto$blifparse.cc:396:parse_blif$233"/>
    <g s:x="0" s:y="5" s:pid="A"/>
    <g s:x="0" s:y="20" s:pid="B"/>
    <g s:x="36" s:y="12.5" s:pid="Y"/>
  </g>
  <g s:type="nand" transform="translate(340,57)" s:width="30" s:height="25" id="cell_$abc$200$auto$blifparse.cc:396:parse_blif$234">
    <s:alias val="$nand"/>
    <s:alias val="$logic_nand"/>
    <s:alias val="$_NAND_"/>
    <s:alias val="$_ANDNOT_"/>
    <path d="M0,0 L0,25 L15,25 A15 12.5 0 0 0 15,0 Z" class="cell_$abc$200$auto$blifparse.cc:396:parse_blif$234"/>
    <circle cx="34" cy="12.5" r="3" class="cell_$abc$200$auto$blifparse.cc:396:parse_blif$234"/>
    <g s:x="0" s:y="5" s:pid="A"/>
    <g s:x="0" s:y="20" s:pid="B"/>
    <g s:x="36" s:y="12.5" s:pid="Y"/>
  </g>
  <g s:type="or" transform="translate(413,138)" s:width="30" s:height="25" id="cell_$abc$200$auto$blifparse.cc:396:parse_blif$235">
    <s:alias val="$or"/>
    <s:alias val="$logic_or"/>
    <s:alias val="$_OR_"/>
    <path d="M0,25 L0,25 L15,25 A15 12.5 0 0 0 15,0 L0,0" class="cell_$abc$200$auto$blifparse.cc:396:parse_blif$235"/>
    <path d="M0,0 A30 25 0 0 1 0,25" class="cell_$abc$200$auto$blifparse.cc:396:parse_blif$235"/>
    <g s:x="3" s:y="5" s:pid="A"/>
    <g s:x="3" s:y="20" s:pid="B"/>
    <g s:x="30" s:y="12.5" s:pid="Y"/>
  </g>
  <g s:type="reduce_nor" transform="translate(188,848)" s:width="33" s:height="25" id="cell_$abc$200$auto$blifparse.cc:396:parse_blif$236">
    <s:alias val="$nor"/>
    <s:alias val="$reduce_nor"/>
    <s:alias val="$_NOR_"/>
    <s:alias val="$_ORNOT_"/>
    <path d="M0,25 L0,25 L15,25 A15 12.5 0 0 0 15,0 L0,0" class="cell_$abc$200$auto$blifparse.cc:396:parse_blif$236"/>
    <path d="M0,0 A30 25 0 0 1 0,25" class="cell_$abc$200$auto$blifparse.cc:396:parse_blif$236"/>
    <circle cx="34" cy="12.5" r="3" class="cell_$abc$200$auto$blifparse.cc:396:parse_blif$236"/>
    <g s:x="3" s:y="5" s:pid="A"/>
    <g s:x="3" s:y="20" s:pid="B"/>
    <g s:x="36" s:y="12.5" s:pid="Y"/>
  </g>
  <g s:type="nand" transform="translate(264,840.5)" s:width="30" s:height="25" id="cell_$abc$200$auto$blifparse.cc:396:parse_blif$237">
    <s:alias val="$nand"/>
    <s:alias val="$logic_nand"/>
    <s:alias val="$_NAND_"/>
    <s:alias val="$_ANDNOT_"/>
    <path d="M0,0 L0,25 L15,25 A15 12.5 0 0 0 15,0 Z" class="cell_$abc$200$auto$blifparse.cc:396:parse_blif$237"/>
    <circle cx="34" cy="12.5" r="3" class="cell_$abc$200$auto$blifparse.cc:396:parse_blif$237"/>
    <g s:x="0" s:y="5" s:pid="A"/>
    <g s:x="0" s:y="20" s:pid="B"/>
    <g s:x="36" s:y="12.5" s:pid="Y"/>
  </g>
  <g s:type="nand" transform="translate(340,833)" s:width="30" s:height="25" id="cell_$abc$200$auto$blifparse.cc:396:parse_blif$238">
    <s:alias val="$nand"/>
    <s:alias val="$logic_nand"/>
    <s:alias val="$_NAND_"/>
    <s:alias val="$_ANDNOT_"/>
    <path d="M0,0 L0,25 L15,25 A15 12.5 0 0 0 15,0 Z" class="cell_$abc$200$auto$blifparse.cc:396:parse_blif$238"/>
    <circle cx="34" cy="12.5" r="3" class="cell_$abc$200$auto$blifparse.cc:396:parse_blif$238"/>
    <g s:x="0" s:y="5" s:pid="A"/>
    <g s:x="0" s:y="20" s:pid="B"/>
    <g s:x="36" s:y="12.5" s:pid="Y"/>
  </g>
  <g s:type="nand" transform="translate(340,773)" s:width="30" s:height="25" id="cell_$abc$200$auto$blifparse.cc:396:parse_blif$239">
    <s:alias val="$nand"/>
    <s:alias val="$logic_nand"/>
    <s:alias val="$_NAND_"/>
    <s:alias val="$_ANDNOT_"/>
    <path d="M0,0 L0,25 L15,25 A15 12.5 0 0 0 15,0 Z" class="cell_$abc$200$auto$blifparse.cc:396:parse_blif$239"/>
    <circle cx="34" cy="12.5" r="3" class="cell_$abc$200$auto$blifparse.cc:396:parse_blif$239"/>
    <g s:x="0" s:y="5" s:pid="A"/>
    <g s:x="0" s:y="20" s:pid="B"/>
    <g s:x="36" s:y="12.5" s:pid="Y"/>
  </g>
  <g s:type="or" transform="translate(413,825.5)" s:width="30" s:height="25" id="cell_$abc$200$auto$blifparse.cc:396:parse_blif$240">
    <s:alias val="$or"/>
    <s:alias val="$logic_or"/>
    <s:alias val="$_OR_"/>
    <path d="M0,25 L0,25 L15,25 A15 12.5 0 0 0 15,0 L0,0" class="cell_$abc$200$auto$blifparse.cc:396:parse_blif$240"/>
    <path d="M0,0 A30 25 0 0 1 0,25" class="cell_$abc$200$auto$blifparse.cc:396:parse_blif$240"/>
    <g s:x="3" s:y="5" s:pid="A"/>
    <g s:x="3" s:y="20" s:pid="B"/>
    <g s:x="30" s:y="12.5" s:pid="Y"/>
  </g>
  <g s:type="inputExt" transform="translate(12,268.5)" s:width="30" s:height="20" id="cell_A">
    <text x="15" y="-4" class="nodelabel cell_A" s:attribute="ref">A</text>
    <s:alias val="$_inputExt_"/>
    <path d="M0,0 L0,20 L15,20 L30,10 L15,0 Z" class="cell_A"/>
    <g s:x="28" s:y="10" s:pid="Y"/>
  </g>
  <g s:type="inputExt" transform="translate(12,333.5)" s:width="30" s:height="20" id="cell_B">
    <text x="15" y="-4" class="nodelabel cell_B" s:attribute="ref">B</text>
    <s:alias val="$_inputExt_"/>
    <path d="M0,0 L0,20 L15,20 L30,10 L15,0 Z" class="cell_B"/>
    <g s:x="28" s:y="10" s:pid="Y"/>
  </g>
  <g s:type="inputExt" transform="translate(12,463.5)" s:width="30" s:height="20" id="cell_C">
    <text x="15" y="-4" class="nodelabel cell_C" s:attribute="ref">C</text>
    <s:alias val="$_inputExt_"/>
    <path d="M0,0 L0,20 L15,20 L30,10 L15,0 Z" class="cell_C"/>
    <g s:x="28" s:y="10" s:pid="Y"/>
  </g>
  <g s:type="inputExt" transform="translate(12,398.5)" s:width="30" s:height="20" id="cell_D">
    <text x="15" y="-4" class="nodelabel cell_D" s:attribute="ref">D</text>
    <s:alias val="$_inputExt_"/>
    <path d="M0,0 L0,20 L15,20 L30,10 L15,0 Z" class="cell_D"/>
    <g s:x="28" s:y="10" s:pid="Y"/>
  </g>
  <g s:type="outputExt" transform="translate(482,365)" s:width="30" s:height="20" id="cell_a">
    <text x="15" y="-4" class="nodelabel cell_a" s:attribute="ref">a</text>
    <s:alias val="$_outputExt_"/>
    <path d="M30,0 L30,20 L15,20 L0,10 L15,0 Z" class="cell_a"/>
    <g s:x="0" s:y="10" s:pid="A"/>
  </g>
  <g s:type="outputExt" transform="translate(482,508.5)" s:width="30" s:height="20" id="cell_b">
    <text x="15" y="-4" class="nodelabel cell_b" s:attribute="ref">b</text>
    <s:alias val="$_outputExt_"/>
    <path d="M30,0 L30,20 L15,20 L0,10 L15,0 Z" class="cell_b"/>
    <g s:x="0" s:y="10" s:pid="A"/>
  </g>
  <g s:type="outputExt" transform="translate(482,744.5)" s:width="30" s:height="20" id="cell_c">
    <text x="15" y="-4" class="nodelabel cell_c" s:attribute="ref">c</text>
    <s:alias val="$_outputExt_"/>
    <path d="M30,0 L30,20 L15,20 L0,10 L15,0 Z" class="cell_c"/>
    <g s:x="0" s:y="10" s:pid="A"/>
  </g>
  <g s:type="outputExt" transform="translate(482,662)" s:width="30" s:height="20" id="cell_d">
    <text x="15" y="-4" class="nodelabel cell_d" s:attribute="ref">d</text>
    <s:alias val="$_outputExt_"/>
    <path d="M30,0 L30,20 L15,20 L0,10 L15,0 Z" class="cell_d"/>
    <g s:x="0" s:y="10" s:pid="A"/>
  </g>
  <g s:type="outputExt" transform="translate(482,296.5)" s:width="30" s:height="20" id="cell_e">
    <text x="15" y="-4" class="nodelabel cell_e" s:attribute="ref">e</text>
    <s:alias val="$_outputExt_"/>
    <path d="M30,0 L30,20 L15,20 L0,10 L15,0 Z" class="cell_e"/>
    <g s:x="0" s:y="10" s:pid="A"/>
  </g>
  <g s:type="outputExt" transform="translate(482,140.5)" s:width="30" s:height="20" id="cell_f">
    <text x="15" y="-4" class="nodelabel cell_f" s:attribute="ref">f</text>
    <s:alias val="$_outputExt_"/>
    <path d="M30,0 L30,20 L15,20 L0,10 L15,0 Z" class="cell_f"/>
    <g s:x="0" s:y="10" s:pid="A"/>
  </g>
  <g s:type="outputExt" transform="translate(482,828)" s:width="30" s:height="20" id="cell_g">
    <text x="15" y="-4" class="nodelabel cell_g" s:attribute="ref">g</text>
    <s:alias val="$_outputExt_"/>
    <path d="M30,0 L30,20 L15,20 L0,10 L15,0 Z" class="cell_g"/>
    <g s:x="0" s:y="10" s:pid="A"/>
  </g>
  <line x1="40" x2="254" y1="473.5" y2="473.5" class="net_4"/>
  <line x1="254" x2="254" y1="473.5" y2="518.5" class="net_4"/>
  <circle cx="254" cy="473.5" r="2" style="fill:#000" class="net_4"/>
  <line x1="254" x2="267" y1="518.5" y2="518.5" class="net_4"/>
  <line x1="40" x2="62" y1="473.5" y2="473.5" class="net_4"/>
  <line x1="62" x2="62" y1="473.5" y2="322.5" class="net_4"/>
  <circle cx="62" cy="473.5" r="2" style="fill:#000" class="net_4"/>
  <circle cx="62" cy="322.5" r="2" style="fill:#000" class="net_4"/>
  <line x1="62" x2="191" y1="322.5" y2="322.5" class="net_4"/>
  <line x1="40" x2="268" y1="473.5" y2="473.5" class="net_4"/>
  <line x1="40" x2="62" y1="473.5" y2="473.5" class="net_4"/>
  <line x1="62" x2="62" y1="473.5" y2="724.5" class="net_4"/>
  <circle cx="62" cy="724.5" r="2" style="fill:#000" class="net_4"/>
  <line x1="62" x2="92" y1="724.5" y2="724.5" class="net_4"/>
  <line x1="40" x2="62" y1="473.5" y2="473.5" class="net_4"/>
  <line x1="62" x2="62" y1="473.5" y2="634.5" class="net_4"/>
  <circle cx="62" cy="634.5" r="2" style="fill:#000" class="net_4"/>
  <line x1="62" x2="95" y1="634.5" y2="634.5" class="net_4"/>
  <line x1="40" x2="62" y1="473.5" y2="473.5" class="net_4"/>
  <line x1="62" x2="62" y1="473.5" y2="860.5" class="net_4"/>
  <line x1="62" x2="95" y1="860.5" y2="860.5" class="net_4"/>
  <line x1="40" x2="62" y1="473.5" y2="473.5" class="net_4"/>
  <line x1="62" x2="62" y1="473.5" y2="255.5" class="net_4"/>
  <line x1="62" x2="355.3333333333333" y1="255.5" y2="255.5" class="net_4"/>
  <line x1="355.3333333333333" x2="355.3333333333333" y1="255.5" y2="240.5" class="net_4"/>
  <line x1="40" x2="52" y1="343.5" y2="343.5" class="net_3"/>
  <line x1="52" x2="52" y1="343.5" y2="533.5" class="net_3"/>
  <circle cx="52" cy="343.5" r="2" style="fill:#000" class="net_3"/>
  <circle cx="52" cy="533.5" r="2" style="fill:#000" class="net_3"/>
  <line x1="52" x2="267" y1="533.5" y2="533.5" class="net_3"/>
  <line x1="40" x2="52" y1="343.5" y2="343.5" class="net_3"/>
  <line x1="52" x2="52" y1="343.5" y2="286.5" class="net_3"/>
  <circle cx="52" cy="286.5" r="2" style="fill:#000" class="net_3"/>
  <line x1="52" x2="190" y1="286.5" y2="286.5" class="net_3"/>
  <line x1="40" x2="52" y1="343.5" y2="343.5" class="net_3"/>
  <line x1="52" x2="52" y1="343.5" y2="739.5" class="net_3"/>
  <circle cx="52" cy="739.5" r="2" style="fill:#000" class="net_3"/>
  <line x1="52" x2="92" y1="739.5" y2="739.5" class="net_3"/>
  <line x1="40" x2="52" y1="343.5" y2="343.5" class="net_3"/>
  <line x1="52" x2="52" y1="343.5" y2="875.5" class="net_3"/>
  <line x1="52" x2="95" y1="875.5" y2="875.5" class="net_3"/>
  <line x1="40" x2="52" y1="343.5" y2="343.5" class="net_3"/>
  <line x1="52" x2="52" y1="343.5" y2="129.5" class="net_3"/>
  <line x1="52" x2="320" y1="129.5" y2="129.5" class="net_3"/>
  <line x1="320" x2="320" y1="129.5" y2="215.5" class="net_3"/>
  <circle cx="52" cy="129.5" r="2" style="fill:#000" class="net_3"/>
  <line x1="320" x2="345.3333333333333" y1="215.5" y2="215.5" class="net_3"/>
  <line x1="40" x2="52" y1="343.5" y2="343.5" class="net_3"/>
  <line x1="52" x2="52" y1="343.5" y2="114.5" class="net_3"/>
  <line x1="52" x2="95" y1="114.5" y2="114.5" class="net_3"/>
  <line x1="40" x2="95" y1="343.5" y2="343.5" class="net_3"/>
  <line x1="40" x2="52" y1="343.5" y2="343.5" class="net_3"/>
  <line x1="52" x2="52" y1="343.5" y2="129.5" class="net_3"/>
  <line x1="52" x2="168" y1="129.5" y2="129.5" class="net_3"/>
  <line x1="168" x2="168" y1="129.5" y2="92" class="net_3"/>
  <circle cx="168" cy="129.5" r="2" style="fill:#000" class="net_3"/>
  <line x1="168" x2="191" y1="92" y2="92" class="net_3"/>
  <line x1="40" x2="72" y1="408.5" y2="408.5" class="net_5"/>
  <line x1="72" x2="72" y1="408.5" y2="301.5" class="net_5"/>
  <line x1="72" x2="234" y1="301.5" y2="301.5" class="net_5"/>
  <line x1="234" x2="234" y1="301.5" y2="382.5" class="net_5"/>
  <circle cx="72" cy="408.5" r="2" style="fill:#000" class="net_5"/>
  <circle cx="72" cy="301.5" r="2" style="fill:#000" class="net_5"/>
  <line x1="234" x2="264" y1="382.5" y2="382.5" class="net_5"/>
  <line x1="40" x2="72" y1="408.5" y2="408.5" class="net_5"/>
  <line x1="72" x2="72" y1="408.5" y2="271.5" class="net_5"/>
  <circle cx="72" cy="271.5" r="2" style="fill:#000" class="net_5"/>
  <line x1="72" x2="190" y1="271.5" y2="271.5" class="net_5"/>
  <line x1="40" x2="254" y1="408.5" y2="408.5" class="net_5"/>
  <line x1="254" x2="254" y1="408.5" y2="458.5" class="net_5"/>
  <line x1="254" x2="268" y1="458.5" y2="458.5" class="net_5"/>
  <line x1="40" x2="72" y1="408.5" y2="408.5" class="net_5"/>
  <line x1="72" x2="72" y1="408.5" y2="754.5" class="net_5"/>
  <line x1="72" x2="264" y1="754.5" y2="754.5" class="net_5"/>
  <line x1="40" x2="72" y1="408.5" y2="408.5" class="net_5"/>
  <line x1="72" x2="72" y1="408.5" y2="619.5" class="net_5"/>
  <circle cx="72" cy="619.5" r="2" style="fill:#000" class="net_5"/>
  <line x1="72" x2="95" y1="619.5" y2="619.5" class="net_5"/>
  <line x1="40" x2="72" y1="408.5" y2="408.5" class="net_5"/>
  <line x1="72" x2="72" y1="408.5" y2="603.5" class="net_5"/>
  <line x1="72" x2="178" y1="603.5" y2="603.5" class="net_5"/>
  <line x1="178" x2="178" y1="603.5" y2="687" class="net_5"/>
  <circle cx="72" cy="603.5" r="2" style="fill:#000" class="net_5"/>
  <circle cx="178" cy="603.5" r="2" style="fill:#000" class="net_5"/>
  <line x1="178" x2="188" y1="687" y2="687" class="net_5"/>
  <line x1="40" x2="72" y1="408.5" y2="408.5" class="net_5"/>
  <line x1="72" x2="72" y1="408.5" y2="603.5" class="net_5"/>
  <line x1="72" x2="340" y1="603.5" y2="603.5" class="net_5"/>
  <line x1="40" x2="72" y1="408.5" y2="408.5" class="net_5"/>
  <line x1="72" x2="72" y1="408.5" y2="150.5" class="net_5"/>
  <circle cx="72" cy="150.5" r="2" style="fill:#000" class="net_5"/>
  <line x1="72" x2="267" y1="150.5" y2="150.5" class="net_5"/>
  <line x1="40" x2="72" y1="408.5" y2="408.5" class="net_5"/>
  <line x1="72" x2="72" y1="408.5" y2="77" class="net_5"/>
  <line x1="72" x2="191" y1="77" y2="77" class="net_5"/>
  <line x1="40" x2="82" y1="278.5" y2="278.5" class="net_2"/>
  <line x1="82" x2="82" y1="278.5" y2="397.5" class="net_2"/>
  <circle cx="82" cy="278.5" r="2" style="fill:#000" class="net_2"/>
  <circle cx="82" cy="397.5" r="2" style="fill:#000" class="net_2"/>
  <line x1="82" x2="264" y1="397.5" y2="397.5" class="net_2"/>
  <line x1="40" x2="82" y1="278.5" y2="278.5" class="net_2"/>
  <line x1="82" x2="82" y1="278.5" y2="583.5" class="net_2"/>
  <line x1="82" x2="267" y1="583.5" y2="583.5" class="net_2"/>
  <line x1="40" x2="82" y1="278.5" y2="278.5" class="net_2"/>
  <line x1="82" x2="82" y1="278.5" y2="235.5" class="net_2"/>
  <circle cx="82" cy="235.5" r="2" style="fill:#000" class="net_2"/>
  <line x1="82" x2="345.3333333333333" y1="235.5" y2="235.5" class="net_2"/>
  <line x1="40" x2="82" y1="278.5" y2="278.5" class="net_2"/>
  <line x1="82" x2="82" y1="278.5" y2="99.5" class="net_2"/>
  <line x1="82" x2="95" y1="99.5" y2="99.5" class="net_2"/>
  <line x1="40" x2="82" y1="278.5" y2="278.5" class="net_2"/>
  <line x1="82" x2="82" y1="278.5" y2="358.5" class="net_2"/>
  <circle cx="82" cy="358.5" r="2" style="fill:#000" class="net_2"/>
  <line x1="82" x2="95" y1="358.5" y2="358.5" class="net_2"/>
  <line x1="300" x2="320" y1="526" y2="526" class="net_13"/>
  <line x1="320" x2="320" y1="526" y2="375" class="net_13"/>
  <circle cx="320" cy="526" r="2" style="fill:#000" class="net_13"/>
  <line x1="320" x2="340" y1="375" y2="375" class="net_13"/>
  <line x1="300" x2="416" y1="526" y2="526" class="net_13"/>
  <line x1="300" x2="320" y1="526" y2="526" class="net_13"/>
  <line x1="320" x2="320" y1="526" y2="762" class="net_13"/>
  <line x1="320" x2="416" y1="762" y2="762" class="net_13"/>
  <line x1="300" x2="320" y1="526" y2="526" class="net_13"/>
  <line x1="320" x2="320" y1="526" y2="588.5" class="net_13"/>
  <circle cx="320" cy="588.5" r="2" style="fill:#000" class="net_13"/>
  <line x1="320" x2="340" y1="588.5" y2="588.5" class="net_13"/>
  <line x1="300" x2="340" y1="390" y2="390" class="net_14"/>
  <line x1="216" x2="264" y1="322.5" y2="322.5" class="net_17"/>
  <line x1="216" x2="244" y1="322.5" y2="322.5" class="net_17"/>
  <line x1="244" x2="244" y1="322.5" y2="53.5" class="net_17"/>
  <line x1="244" x2="310" y1="53.5" y2="53.5" class="net_17"/>
  <line x1="310" x2="310" y1="53.5" y2="62" class="net_17"/>
  <circle cx="244" cy="322.5" r="2" style="fill:#000" class="net_17"/>
  <line x1="310" x2="340" y1="62" y2="62" class="net_17"/>
  <line x1="216" x2="244" y1="322.5" y2="322.5" class="net_17"/>
  <line x1="244" x2="244" y1="322.5" y2="778" class="net_17"/>
  <line x1="244" x2="340" y1="778" y2="778" class="net_17"/>
  <line x1="220" x2="254" y1="279" y2="279" class="net_18"/>
  <line x1="254" x2="254" y1="279" y2="337.5" class="net_18"/>
  <line x1="254" x2="264" y1="337.5" y2="337.5" class="net_18"/>
  <line x1="292" x2="310" y1="583.5" y2="583.5" class="net_16"/>
  <line x1="310" x2="310" y1="583.5" y2="315" class="net_16"/>
  <circle cx="310" cy="583.5" r="2" style="fill:#000" class="net_16"/>
  <line x1="310" x2="340" y1="315" y2="315" class="net_16"/>
  <line x1="292" x2="310" y1="583.5" y2="583.5" class="net_16"/>
  <line x1="310" x2="310" y1="583.5" y2="451" class="net_16"/>
  <circle cx="310" cy="451" r="2" style="fill:#000" class="net_16"/>
  <line x1="310" x2="340" y1="451" y2="451" class="net_16"/>
  <line x1="292" x2="310" y1="583.5" y2="583.5" class="net_16"/>
  <line x1="310" x2="310" y1="583.5" y2="732" class="net_16"/>
  <circle cx="310" cy="732" r="2" style="fill:#000" class="net_16"/>
  <line x1="310" x2="340" y1="732" y2="732" class="net_16"/>
  <line x1="292" x2="310" y1="583.5" y2="583.5" class="net_16"/>
  <line x1="310" x2="310" y1="583.5" y2="672" class="net_16"/>
  <circle cx="310" cy="672" r="2" style="fill:#000" class="net_16"/>
  <line x1="310" x2="340" y1="672" y2="672" class="net_16"/>
  <line x1="292" x2="310" y1="583.5" y2="583.5" class="net_16"/>
  <line x1="310" x2="310" y1="583.5" y2="838" class="net_16"/>
  <line x1="310" x2="340" y1="838" y2="838" class="net_16"/>
  <line x1="300" x2="340" y1="330" y2="330" class="net_19"/>
  <line x1="376" x2="386" y1="322.5" y2="322.5" class="net_20"/>
  <line x1="386" x2="386" y1="322.5" y2="367.5" class="net_20"/>
  <line x1="386" x2="416" y1="367.5" y2="367.5" class="net_20"/>
  <line x1="376" x2="416" y1="382.5" y2="382.5" class="net_15"/>
  <line x1="298" x2="340" y1="466" y2="466" class="net_21"/>
  <line x1="376" x2="386" y1="458.5" y2="458.5" class="net_22"/>
  <line x1="386" x2="386" y1="458.5" y2="511" class="net_22"/>
  <line x1="386" x2="416" y1="511" y2="511" class="net_22"/>
  <line x1="128" x2="254" y1="732" y2="732" class="net_23"/>
  <line x1="254" x2="254" y1="732" y2="739.5" class="net_23"/>
  <line x1="254" x2="264" y1="739.5" y2="739.5" class="net_23"/>
  <line x1="128" x2="168" y1="732" y2="732" class="net_23"/>
  <line x1="168" x2="168" y1="732" y2="642" class="net_23"/>
  <circle cx="168" cy="732" r="2" style="fill:#000" class="net_23"/>
  <line x1="168" x2="188" y1="642" y2="642" class="net_23"/>
  <line x1="128" x2="168" y1="732" y2="732" class="net_23"/>
  <line x1="168" x2="168" y1="732" y2="853" class="net_23"/>
  <line x1="168" x2="191" y1="853" y2="853" class="net_23"/>
  <line x1="300" x2="340" y1="747" y2="747" class="net_24"/>
  <line x1="376" x2="386" y1="739.5" y2="739.5" class="net_25"/>
  <line x1="386" x2="386" y1="739.5" y2="747" class="net_25"/>
  <line x1="386" x2="416" y1="747" y2="747" class="net_25"/>
  <line x1="128" x2="188" y1="627" y2="627" class="net_26"/>
  <line x1="128" x2="138" y1="627" y2="627" class="net_26"/>
  <line x1="138" x2="138" y1="627" y2="837" class="net_26"/>
  <line x1="138" x2="234" y1="837" y2="837" class="net_26"/>
  <line x1="234" x2="234" y1="837" y2="845.5" class="net_26"/>
  <circle cx="138" cy="627" r="2" style="fill:#000" class="net_26"/>
  <line x1="234" x2="264" y1="845.5" y2="845.5" class="net_26"/>
  <line x1="128" x2="158" y1="868" y2="868" class="net_28"/>
  <line x1="158" x2="158" y1="868" y2="702" class="net_28"/>
  <circle cx="158" cy="868" r="2" style="fill:#000" class="net_28"/>
  <line x1="158" x2="188" y1="702" y2="702" class="net_28"/>
  <line x1="128" x2="191" y1="868" y2="868" class="net_28"/>
  <line x1="224" x2="254" y1="634.5" y2="634.5" class="net_27"/>
  <line x1="254" x2="254" y1="634.5" y2="679.5" class="net_27"/>
  <line x1="254" x2="264" y1="679.5" y2="679.5" class="net_27"/>
  <line x1="224" x2="264" y1="694.5" y2="694.5" class="net_29"/>
  <line x1="300" x2="340" y1="687" y2="687" class="net_30"/>
  <line x1="376" x2="386" y1="596" y2="596" class="net_32"/>
  <line x1="386" x2="386" y1="596" y2="664.5" class="net_32"/>
  <line x1="386" x2="416" y1="664.5" y2="664.5" class="net_32"/>
  <line x1="376" x2="416" y1="679.5" y2="679.5" class="net_31"/>
  <line x1="292" x2="310" y1="150.5" y2="150.5" class="net_33"/>
  <line x1="310" x2="310" y1="150.5" y2="299" class="net_33"/>
  <circle cx="310" cy="150.5" r="2" style="fill:#000" class="net_33"/>
  <line x1="310" x2="411" y1="299" y2="299" class="net_33"/>
  <line x1="292" x2="340" y1="150.5" y2="150.5" class="net_33"/>
  <line x1="365.3333333333333" x2="386" y1="225.5" y2="225.5" class="net_34"/>
  <line x1="386" x2="386" y1="225.5" y2="314" class="net_34"/>
  <line x1="386" x2="411" y1="314" y2="314" class="net_34"/>
  <line x1="128" x2="330" y1="107" y2="107" class="net_35"/>
  <line x1="330" x2="330" y1="107" y2="165.5" class="net_35"/>
  <line x1="330" x2="340" y1="165.5" y2="165.5" class="net_35"/>
  <line x1="128" x2="158" y1="107" y2="107" class="net_35"/>
  <line x1="158" x2="158" y1="107" y2="32" class="net_35"/>
  <circle cx="158" cy="107" r="2" style="fill:#000" class="net_35"/>
  <line x1="158" x2="190" y1="32" y2="32" class="net_35"/>
  <line x1="128" x2="148" y1="351" y2="351" class="net_37"/>
  <line x1="148" x2="148" y1="351" y2="17" class="net_37"/>
  <circle cx="148" cy="351" r="2" style="fill:#000" class="net_37"/>
  <line x1="148" x2="190" y1="17" y2="17" class="net_37"/>
  <line x1="128" x2="148" y1="351" y2="351" class="net_37"/>
  <line x1="148" x2="148" y1="351" y2="793" class="net_37"/>
  <line x1="148" x2="340" y1="793" y2="793" class="net_37"/>
  <line x1="220" x2="254" y1="24.5" y2="24.5" class="net_38"/>
  <line x1="254" x2="254" y1="24.5" y2="69.5" class="net_38"/>
  <line x1="254" x2="264" y1="69.5" y2="69.5" class="net_38"/>
  <line x1="224" x2="264" y1="84.5" y2="84.5" class="net_39"/>
  <line x1="300" x2="340" y1="77" y2="77" class="net_40"/>
  <line x1="376" x2="386" y1="69.5" y2="69.5" class="net_41"/>
  <line x1="386" x2="386" y1="69.5" y2="143" class="net_41"/>
  <line x1="386" x2="416" y1="143" y2="143" class="net_41"/>
  <line x1="376" x2="416" y1="158" y2="158" class="net_36"/>
  <line x1="224" x2="264" y1="860.5" y2="860.5" class="net_42"/>
  <line x1="300" x2="340" y1="853" y2="853" class="net_43"/>
  <line x1="376" x2="386" y1="785.5" y2="785.5" class="net_45"/>
  <line x1="386" x2="386" y1="785.5" y2="830.5" class="net_45"/>
  <line x1="386" x2="416" y1="830.5" y2="830.5" class="net_45"/>
  <line x1="376" x2="416" y1="845.5" y2="845.5" class="net_44"/>
  <line x1="443" x2="482" y1="375" y2="375" class="net_6"/>
  <line x1="443" x2="482" y1="518.5" y2="518.5" class="net_7"/>
  <line x1="443" x2="482" y1="754.5" y2="754.5" class="net_8"/>
  <line x1="443" x2="482" y1="672" y2="672" class="net_9"/>
  <line x1="447" x2="482" y1="306.5" y2="306.5" class="net_10"/>
  <line x1="443" x2="482" y1="150.5" y2="150.5" class="net_11"/>
  <line x1="443" x2="482" y1="838" y2="838" class="net_12"/>
</svg>
